<svg width="30" height="30" viewBox="0 0 30 30" fill="none" xmlns="http://www.w3.org/2000/svg">
<path fill-rule="evenodd" clip-rule="evenodd" d="M25.7932 9.66819L25.0151 8.31807C24.3569 7.17567 22.8982 6.78157 21.7543 7.43707V7.43707C21.2097 7.75785 20.56 7.84886 19.9482 7.69003C19.3365 7.5312 18.8131 7.13557 18.4934 6.59039C18.2877 6.24386 18.1772 5.84916 18.173 5.44622V5.44622C18.1916 4.8002 17.9479 4.17417 17.4974 3.71076C17.0469 3.24734 16.428 2.986 15.7817 2.98627H14.2142C13.5811 2.98626 12.974 3.23856 12.5274 3.68735C12.0807 4.13614 11.8313 4.74441 11.8344 5.37757V5.37757C11.8156 6.68483 10.7505 7.73469 9.44306 7.73455C9.04012 7.73037 8.64542 7.61985 8.29889 7.41418V7.41418C7.15493 6.75869 5.69624 7.15279 5.03802 8.29519L4.20278 9.66819C3.54536 10.8092 3.9341 12.2669 5.07235 12.9291V12.9291C5.81223 13.3562 6.26802 14.1457 6.26802 15C6.26802 15.8543 5.81223 16.6438 5.07235 17.0709V17.0709C3.93555 17.7286 3.54639 19.1828 4.20278 20.3204V20.3204L4.99226 21.6819C5.30066 22.2384 5.8181 22.649 6.43009 22.823C7.04208 22.9969 7.69815 22.9198 8.25313 22.6087V22.6087C8.7987 22.2903 9.44884 22.2031 10.059 22.3664C10.6692 22.5297 11.1889 22.93 11.5026 23.4783C11.7082 23.8248 11.8187 24.2195 11.8229 24.6224V24.6224C11.8229 25.9431 12.8935 27.0137 14.2142 27.0137H15.7817C17.098 27.0137 18.1667 25.9501 18.173 24.6339V24.6339C18.17 23.9987 18.4209 23.3887 18.8701 22.9396C19.3192 22.4905 19.9292 22.2395 20.5643 22.2426C20.9663 22.2533 21.3594 22.3634 21.7085 22.5629V22.5629C22.8495 23.2203 24.3072 22.8316 24.9694 21.6934V21.6934L25.7932 20.3204C26.112 19.773 26.1996 19.1212 26.0364 18.5091C25.8731 17.8971 25.4727 17.3754 24.9236 17.0595V17.0595C24.3746 16.7436 23.9741 16.2219 23.8109 15.6098C23.6477 14.9978 23.7352 14.3459 24.054 13.7986C24.2614 13.4366 24.5616 13.1364 24.9236 12.9291V12.9291C26.055 12.2673 26.4429 10.818 25.7932 9.67963V9.67963V9.66819Z" stroke="currentColor" stroke-width="2.2" stroke-linecap="round" stroke-linejoin="round"/>
<circle cx="15.0037" cy="15" r="3.29519" stroke="currentColor" stroke-width="2.2" stroke-linecap="round" stroke-linejoin="round"/>
</svg>
