<svg width="400" height="400" viewBox="0 0 400 400" fill="none" xmlns="http://www.w3.org/2000/svg">
  <defs>
    <linearGradient id="ocean" x1="60" y1="30" x2="370" y2="390" gradientUnits="userSpaceOnUse">
      <stop offset="0%" stop-color="#5BC0FF"/>
      <stop offset="40%" stop-color="#1E90FF"/>
      <stop offset="100%" stop-color="#0040CC"/>
    </linearGradient>
    <clipPath id="gc">
      <circle cx="200" cy="200" r="180"/>
    </clipPath>
  </defs>

  <circle cx="200" cy="200" r="180" fill="url(#ocean)"/>

  <g clip-path="url(#gc)" fill="white">

    <!-- Siberia / Russian Far East -->
    <path d="M20 58 L45 62 L70 55 L95 50 L120 54 L145 48 L170 52 L195 46 L220 50 L250 44 L275 48 L300 42 L325 46 L350 40 L375 44 L395 50 L395 72 L380 78 L360 74 L340 80 L315 76 L290 82 L265 78 L240 84 L220 80 L200 86 L175 80 L150 86 L125 82 L100 88 L80 84 L60 78 L40 74 L20 70 Z"/>

    <!-- China mainland -->
    <path d="M62 95 C68 92, 80 88, 95 90 C110 92, 120 88, 135 92 C148 95, 155 100, 165 108 C172 114, 178 122, 182 132 C186 142, 190 155, 188 168 C186 178, 182 186, 176 192 C170 198, 162 202, 152 204 C142 206, 132 202, 122 198 C114 194, 108 188, 102 180 C96 172, 90 162, 85 150 C80 138, 76 126, 72 115 C68 106, 64 98, 62 95 Z"/>

    <!-- Korean Peninsula -->
    <path d="M195 108 C198 105, 204 104, 208 108 C212 114, 214 122, 215 132 C216 140, 214 148, 210 154 C206 158, 202 156, 199 150 C196 144, 194 136, 193 128 C192 120, 193 112, 195 108 Z"/>

    <!-- Japan - Hokkaido -->
    <path d="M235 92 C240 88, 248 90, 252 96 C256 102, 254 110, 248 114 C242 118, 236 115, 234 108 C232 102, 232 96, 235 92 Z"/>

    <!-- Japan - Honshu -->
    <path d="M228 118 C234 114, 242 116, 248 122 C254 128, 258 138, 256 148 C254 158, 248 166, 242 172 C236 176, 230 174, 226 168 C222 160, 224 150, 226 140 C227 132, 226 124, 228 118 Z"/>

    <!-- Japan - Kyushu/Shikoku -->
    <path d="M220 172 C225 170, 232 172, 234 178 C236 184, 232 190, 226 192 C220 193, 216 188, 216 182 C216 177, 218 174, 220 172 Z"/>

    <!-- Taiwan -->
    <path d="M192 196 C196 192, 202 194, 204 200 C206 206, 204 214, 200 218 C196 220, 192 216, 191 210 C190 204, 190 198, 192 196 Z"/>

    <!-- Indochina (Vietnam, Thailand, Myanmar, Laos, Cambodia) -->
    <path d="M80 192 C88 188, 98 190, 108 196 C116 200, 122 208, 126 218 C128 226, 126 234, 120 240 C116 244, 112 248, 110 258 C108 268, 106 276, 100 282 C94 286, 88 282, 86 274 C84 264, 82 254, 78 244 C74 234, 70 224, 68 214 C67 206, 72 196, 80 192 Z"/>

    <!-- Malay Peninsula -->
    <path d="M108 262 C112 258, 118 260, 120 268 C122 278, 120 290, 118 300 C116 308, 112 314, 108 318 C104 320, 100 316, 100 308 C100 298, 102 288, 104 278 C105 270, 106 265, 108 262 Z"/>

    <!-- Sumatra -->
    <path d="M82 298 C88 292, 96 294, 102 302 C106 310, 108 322, 106 334 C104 344, 98 352, 92 354 C86 355, 80 348, 78 338 C76 328, 76 316, 78 308 C79 302, 80 300, 82 298 Z"/>

    <!-- Borneo -->
    <path d="M140 290 C150 284, 164 286, 174 294 C182 302, 186 314, 182 326 C178 336, 168 342, 158 340 C148 338, 140 330, 136 320 C132 310, 134 298, 140 290 Z"/>

    <!-- Java -->
    <path d="M105 358 C115 354, 130 352, 148 354 C164 356, 176 360, 182 364 C186 367, 184 372, 176 374 C164 376, 148 374, 132 372 C118 370, 108 366, 105 362 Z"/>

    <!-- Sulawesi -->
    <path d="M188 300 C192 296, 198 298, 200 306 C202 314, 198 320, 196 326 C194 330, 198 334, 202 330 C206 326, 210 320, 212 314 C214 310, 218 312, 218 318 C218 326, 214 334, 208 340 C202 344, 196 342, 194 336 C192 330, 188 326, 186 320 C184 314, 186 306, 188 300 Z"/>

    <!-- Philippines -->
    <path d="M205 216 C209 212, 215 214, 218 222 C220 230, 218 240, 216 248 C214 254, 210 258, 207 254 C204 248, 204 238, 205 228 C205 222, 205 218, 205 216 Z"/>
    <path d="M212 258 C216 255, 222 258, 224 266 C225 274, 222 282, 218 284 C214 285, 212 280, 212 272 C212 265, 212 260, 212 258 Z"/>

    <!-- Papua New Guinea -->
    <path d="M248 300 C258 292, 274 288, 292 290 C308 292, 322 298, 332 308 C338 314, 340 322, 334 328 C326 334, 314 336, 300 334 C286 332, 272 326, 262 318 C254 312, 250 306, 248 300 Z"/>
    <!-- PNG bird's head -->
    <path d="M228 308 C234 302, 244 304, 248 310 C250 316, 246 322, 240 324 C234 325, 228 320, 228 314 Z"/>

    <!-- Australia -->
    <path d="M195 362 C210 350, 235 340, 265 336 C290 333, 315 336, 338 344 C355 350, 368 360, 375 374 C380 386, 378 400, 370 412 C360 424, 344 432, 325 436 C305 440, 282 438, 262 430 C245 424, 230 414, 220 400 C212 388, 206 378, 200 370 C198 366, 196 364, 195 362 Z"/>

    <!-- New Zealand - North Island -->
    <path d="M348 400 C354 396, 360 398, 364 406 C368 414, 366 424, 362 430 C358 434, 354 432, 352 426 C350 418, 348 408, 348 400 Z"/>
    <!-- New Zealand - South Island -->
    <path d="M352 434 C356 430, 362 432, 365 440 C368 450, 366 462, 360 470 C356 474, 350 472, 348 464 C346 456, 348 444, 352 434 Z"/>

    <!-- India (western edge of globe) -->
    <path d="M20 120 C28 114, 42 110, 55 114 C66 118, 74 128, 78 142 C82 156, 80 172, 74 186 C68 198, 60 210, 52 220 C46 228, 38 234, 30 236 C24 237, 20 232, 20 224 C20 210, 22 196, 22 182 C22 168, 20 154, 20 140 Z"/>

    <!-- Sri Lanka -->
    <path d="M48 240 C52 237, 58 240, 60 248 C62 256, 58 264, 52 266 C48 267, 44 262, 44 254 C44 248, 46 242, 48 240 Z"/>

    <!-- Alaska (right edge) -->
    <path d="M350 42 C358 38, 368 36, 378 38 C386 40, 392 46, 395 54 L395 42 L380 32 L360 30 L345 34 Z"/>

  </g>
</svg>
