<svg width="120" height="120" viewBox="0 0 120 120" fill="none" xmlns="http://www.w3.org/2000/svg">
<rect width="119.608" height="119.608" rx="59.804" fill="url(#paint0_linear_3874_5481)"/>
<path fill-rule="evenodd" clip-rule="evenodd" d="M45.0851 79.5392L55.0562 70.1342C50.3836 68.6129 46.872 64.7301 45.833 59.9363C44.7941 55.1424 46.3841 50.1585 50.0092 46.8465L66.7142 31.0896C55.1937 28.0035 43.0232 32.9497 36.9414 43.1898C30.8596 53.4298 32.3544 66.4583 40.5981 75.0616L45.0851 79.5392ZM83.0571 43.7591C84.3263 46.0406 85.247 48.4985 85.7889 51.0514L85.7752 51.0718C87.6563 59.6963 85.114 68.6895 78.9935 75.0615L59.7957 94.2123L50.2208 84.6301L68.6604 67.2308L68.9268 66.9854C72.3612 63.6991 73.8615 58.8817 72.8988 54.2317C71.936 49.5816 68.6454 45.752 64.1871 44.093L74.3494 34.5108C77.9565 36.8482 80.9438 40.0211 83.0571 43.7591Z" fill="white"/>
<defs>
<linearGradient id="paint0_linear_3874_5481" x1="16.1471" y1="17.9412" x2="100.471" y2="107.647" gradientUnits="userSpaceOnUse">
<stop stop-color="#0995FF"/>
<stop offset="1" stop-color="#0034E3"/>
</linearGradient>
</defs>
</svg>
